# xmcd
#
# Track frame offsets: 
#        150
#        19425
#        37987
#        54205
#        71767
#        89752
#        108150
#        126080
#        146482
#        160697
#        178587
#        193965
#        209112
#        231955
#        252105
#        267912
#        288525
#        304362
#        320645
#
# Disc length: 4447 seconds
#
# Revision: 2
# Processed by: cddbd v1.5.2PL0 Copyright (c) Steve Scherf et al.
# Submitted via: ExactAudioCopy v0.99pb5
#
DISCID=25115d13
DTITLE=Chris De Burgh - The Very Best
DYEAR=2000
DGENRE=Pop
TTITLE0=The Lady In Red
TTITLE1=Missing You
TTITLE2=The Snows Of New York
TTITLE3=In Love Forever
TTITLE4=Sailing Away
TTITLE5=Carry Me
TTITLE6=Shine On
TTITLE7=One Word
TTITLE8=In Dreams
TTITLE9=I`m Not Crying Over You
TTITLE10=Don`t Pay The Ferryman
TTITLE11=Always On My Mind
TTITLE12=Say GoodBye To It All
TTITLE13=Tehder Hands
TTITLE14=One More Mile To Go
TTITLE15=Borderline
TTITLE16=High On Emotion
TTITLE17=Moonlight and Vodka
TTITLE18=Girl
EXTD=ID3G:   0
EXTT0=
EXTT1=
EXTT2=
EXTT3=
EXTT4=
EXTT5=
EXTT6=
EXTT7=
EXTT8=
EXTT9=
EXTT10=
EXTT11=
EXTT12=
EXTT13=
EXTT14=
EXTT15=
EXTT16=
EXTT17=
EXTT18=
PLAYORDER=
